PathFileType	4	(X/Y/Z)	pose_F01_0-96.trc
DataRate	CameraRate	NumFrames	NumMarkers	Units	OrigDataRate	OrigDataStartFrame	OrigNumFrames
30	30	5	21	m	30	84	96
Frame#	Time	CHip			RHip			RKnee			RAnkle			RBigToe			RSmallToe			RHeel			LHip			LKnee			LAnkle			LBigToe			LSmallToe			LHeel			Neck			Nose			RShoulder			RElbow			RWrist			LShoulder			LElbow			LWrist			
		X1	Y1	Z1	X2	Y2	Z2	X3	Y3	Z3	X4	Y4	Z4	X5	Y5	Z5	X6	Y6	Z6	X7	Y7	Z7	X8	Y8	Z8	X9	Y9	Z9	X10	Y10	Z10	X11	Y11	Z11	X12	Y12	Z12	X13	Y13	Z13	X14	Y14	Z14	X15	Y15	Z15	X16	Y16	Z16	X17	Y17	Z17	X18	Y18	Z18	X19	Y19	Z19	X20	Y20	Z20	X21	Y21	Z21	
84	2.8	-0.092636178410409	1.8330073530941566	-0.6762128612092846	-0.11388717525086779	1.831452537906931	-0.6276241728122492	-0.122072383092804	1.7053806373210307	-0.6114590612449107	-0.1288526202550026	1.575319168067423	-0.5873609182167067	-0.16975877811218412	1.5467818659128354	-0.605174665593288	-0.16756936773354764	1.5502578876293804	-0.5825520795088986	-0.12161453213592169	1.5655684947699713	-0.5889970354801779	-0.06828884773888809	1.8333407221974274	-0.7272453012248077	-0.07349276562354282	1.7076218721360585	-0.6975097739199677	-0.20958385015815045	1.5160325491456725	-1.2413035567742687	-0.19762171933930578	1.4884112903568032	-1.191597508445422	-0.18138403403269202	1.4935598492540054	-1.210200632167231	-0.2179831051422319	1.5055228731113368	-1.2450608810433366	-0.07438621664332538	1.985951783589442	-0.7201638975871267	-0.10317786354717103	2.0318131123966157	-0.7324277764500292	-0.10750273191488777	1.9861392901637416	-0.6399840289899252	-0.1429964240360583	1.9168940981449931	-0.5833867905512762	-0.20818421874794238	1.8946653111523968	-0.5828236552304609	-1.4553979297402713	1.8891587826621443	0.7204340457047788	-0.04044551454517139	1.9198124251394102	-0.8167058165877	-1.309524598572824	1.8772005950406563	0.49372488664250225
85	2.8333333333333335	-0.09683187125884966	1.8302822863192083	-0.6711110762749201	-0.11824335575080246	1.8284774822791487	-0.6225220142354492	-0.12398674934232802	1.7039372826904489	-0.6090321879268882	-0.13118743662844087	1.5739510563983197	-0.5845475735071106	-0.1684179417452605	1.5455954141917732	-0.6107559049635006	-0.16764720476153333	1.547707191497786	-0.5822886815752274	-0.12186076262862254	1.5641467927680857	-0.5883601867083118	-0.0704943636299338	1.8319670341343122	-0.7245726546381129	-0.07557868163662589	1.7070121293609894	-0.6949705652666176	-0.20969549015801187	1.5156792000826467	-1.2411265260642041	-0.1977044793951919	1.4884575354779932	-1.1916496660708191	-0.18227120360379584	1.4945731386200052	-1.2132278503115654	-0.2180609095364928	1.503364629128446	-1.2439124477955974	-1.5960694426812554	1.8894474496165423	0.9344756512226848	-0.10980420225230256	2.0340994901984675	-0.7254501256579805	-1.73284562286165	1.8906867918666994	1.156596050754145	-0.14451876911198297	1.9164007627911237	-0.5779268259112423	-0.21034724010590983	1.8940177407076713	-0.5804497708931867	-1.460127783295755	1.8886806645604215	0.725745078542622	-0.044390305020345446	1.9176776802339435	-0.8084271377732517	-1.29780378473205	1.8746682296672983	0.475753151936559
86	2.8666666666666667	-0.09925600814498789	1.8326687590841373	-0.668976782854142	-0.12092230097564026	1.8295893628504818	-0.6114347229848501	-0.12419380993774128	1.7052631522389687	-0.6088622142022879	-0.1312490226588011	1.5738950096913997	-0.5844004207499113	-0.1707046046978756	1.5465965637992138	-0.6083002048656578	-0.16772770925913547	1.5478597249816621	-0.5822505409718793	-0.12101463657961703	1.5640371541796678	-0.585030828651535	-0.07434947088321643	1.833279507498038	-0.7286661428925989	-0.07591945691050281	1.7081333048095007	-0.6951054728938396	-0.2119039914750602	1.5166128320040058	-1.237724858680911	-0.19847980389069653	1.48972511614442	-1.1948278122052538	-0.18300273886119078	1.4961543615041317	-1.216462973305806	-0.21798332042349688	1.5054898799598624	-1.2450975512366171	-0.08544989407708287	1.9865089801916183	-0.708164133044387	-0.11858247709263665	2.038565003811981	-0.7166393322538449	-0.11740899584954419	1.9850039223669511	-0.6249909362856328	-0.14653061028129274	1.9149155402437337	-0.5753623097118848	-0.2101837060626135	1.8926102494322892	-0.5887193592038064	-0.052009609058896365	1.9872558271498282	-0.7830822576752834	-0.04160789955766331	1.915645790104967	-0.8076885229803082	-1.263472287625439	1.8750128946533815	0.4176517107155194
87	2.9	-0.10154200878334922	1.830027358556752	-0.6661524595146654	-0.12308224087248433	1.8294460128561028	-0.6089561875228979	-0.12844327862121796	1.7050973609553906	-0.6041911463678593	-0.1312016748774884	1.5738609816130074	-0.5845574602650035	-0.17100710407341946	1.545318494669216	-0.6077423460954935	-0.1676860622857666	1.547508759384286	-0.5823020320786638	-0.12169617384565055	1.562943496168363	-0.5886335261201684	-0.07878654609790081	1.8318381785166216	-0.7236561149278549	-0.08010504971509955	1.709277011276545	-0.6908582247903282	-0.21186358507658828	1.5155977121445883	-1.2379681170950658	-0.19933374394387954	1.4875848241135052	-1.1985454958531343	-0.18074438845376423	1.4938955711149096	-1.2204539676057486	-0.21802934345256975	1.5040675032530602	-1.245238888705363	-0.09136544786274421	1.9860945311418152	-0.6977117778310942	-0.12303335119242564	2.0442562600649907	-0.7128428190165208	-1.7478433684546284	1.8903888793636163	1.1801222750895881	-0.1489752849990676	1.913303130481293	-0.5731197222011104	-0.20726351884379385	1.884391932880072	-0.5777354259342918	-0.05672179245691535	1.9866773823615729	-0.7780253903680587	-0.0397138458954642	1.9147197629200539	-0.7984674864092274	-1.2687667288709963	1.868812923806528	0.42868199647584143
88	2.933333333333333	-0.10481539464669892	1.8296380874814395	-0.6582326588891926	-0.12621865184114792	1.8293335408992513	-0.6010370106713175	-0.1302061880737997	1.7047821077644942	-0.6022028302729381	-0.13124020849677134	1.5738465848028045	-0.5845246972971598	-0.17067818575407337	1.546633137474659	-0.6083547424540677	-0.16767986777026353	1.5477221405771098	-0.5823074849008941	-0.12170659689582443	1.5629610418787254	-0.5886843249450504	-0.084585342338625	1.830131524111432	-0.7130929301773078	-0.08305912773468871	1.7084587991473195	-0.6913936800108196	-0.21186846319164057	1.515859197786687	-1.2379091527866926	-0.19941409973007168	1.489155760915682	-1.1982288909185932	-0.18396527766933524	1.4967904173743696	-1.2207560219871854	-0.2179950058551309	1.5042855861648956	-1.2451903340807644	-0.09495737437992226	1.9861290067815223	-0.6898145237002319	-0.12880228074590058	2.0468258308554916	-0.7030799165114737	-1.7489244398192199	1.890193548138374	1.1815420267846872	-0.1508711555799139	1.9075745049320343	-0.5695228262839191	-0.21129633690636587	1.8663763603298178	-0.5708999127895298	-0.06345122313273523	1.9869559606408869	-0.7707692609265242	-0.03655059514619445	1.910058668322018	-0.7969639063172415	-1.2357454167365056	1.861206148297787	0.3800731531587202
